# xmcd
# Copyright (C) 1995-1998 Ti Kan
#
# Track frame offsets:
#       200
#       13767
#       29255
#       47327
#       66087
#       90105
#       107037
#       126237
#       148547
#       162655
#       189362
#
# Disc length: 3091 seconds
#
# Revision: 0
# Processed by: cddbd v1.5.2PL0 Copyright (c) Steve Scherf et al.
# Submitted via: CD-Import v1.0
#
DISCID=890c110b
DTITLE=Last Drive - Blo0od Nirvana
DYEAR=1900
DGENRE=
TTITLE0=Bite
TTITLE1=Overloaded
TTITLE2=Chain Train
TTITLE3=Desert Rose
TTITLE4=The Bad Roads
TTITLE5=Cool Spine
TTITLE6=Slave To The Wave
TTITLE7=Holy War
TTITLE8=Sweet Thing
TTITLE9=Fleshdiver
TTITLE10=Time Has Come Today
EXTD=
EXTT0=
EXTT1=
EXTT2=
EXTT3=
EXTT4=
EXTT5=
EXTT6=
EXTT7=
EXTT8=
EXTT9=
EXTT10=
PLAYORDER=
